<svg xmlns="http://www.w3.org/2000/svg" width="1024" height="1024" viewBox="0 0 1024 1024">
  <defs>
    <linearGradient id="bg" x1="0" y1="0" x2="1" y2="1">
      <stop offset="0" stop-color="#F4FFFC"/>
      <stop offset="0.56" stop-color="#D7F5EE"/>
      <stop offset="1" stop-color="#B5E7DC"/>
    </linearGradient>
    <linearGradient id="earth" x1="0.12" y1="0" x2="0.88" y2="1">
      <stop offset="0" stop-color="#00A9A5"/>
      <stop offset="1" stop-color="#006F8D"/>
    </linearGradient>
    <filter id="shadow" x="-25%" y="-25%" width="150%" height="160%">
      <feDropShadow dx="0" dy="24" stdDeviation="27" flood-color="#124B55" flood-opacity="0.22"/>
    </filter>
  </defs>
  <rect x="52" y="52" width="920" height="920" rx="205" fill="url(#bg)"/>
  <g filter="url(#shadow)">
    <circle cx="512" cy="392" r="235" fill="#FFFFFF" fill-opacity="0.72" stroke="url(#earth)" stroke-width="30"/>
    <ellipse cx="512" cy="392" rx="118" ry="235" fill="none" stroke="#24B6AD" stroke-width="18" opacity="0.9"/>
    <path d="M277 392h470M310 292c112 53 292 53 404 0M310 492c112-53 292-53 404 0" fill="none" stroke="#24B6AD" stroke-width="18" stroke-linecap="round" opacity="0.9"/>
    <path d="M330 534 512 608l182-74-182-74Z" fill="#007E96" fill-opacity="0.93" stroke="#FFFFFF" stroke-width="13" stroke-linejoin="round"/>
    <path d="M365 588 512 648l147-60" fill="none" stroke="#00AAA1" stroke-width="24" stroke-linecap="round" stroke-linejoin="round"/>
    <circle cx="650" cy="260" r="24" fill="#FFB703" stroke="#FFFFFF" stroke-width="10"/>
    <path d="M650 284c-19 34-47 59-81 77" fill="none" stroke="#FFB703" stroke-width="12" stroke-linecap="round"/>
  </g>
  <text x="512" y="858" text-anchor="middle" font-family="Arial, Helvetica, sans-serif" font-size="126" font-weight="700" letter-spacing="8" fill="#124B55">GEE</text>
  <text x="512" y="914" text-anchor="middle" font-family="Arial, Helvetica, sans-serif" font-size="42" font-weight="600" letter-spacing="5" fill="#2D6B70">WORKBENCH</text>
</svg>
